<?xml version="1.0" encoding="utf-8"?>
<!-- Generator: Adobe Illustrator 18.1.0, SVG Export Plug-In . SVG Version: 6.00 Build 0)  -->
<svg version="1.1" id="Layer_1" xmlns:ev="http://www.w3.org/2001/xml-events"
	 xmlns="http://www.w3.org/2000/svg" xmlns:xlink="http://www.w3.org/1999/xlink" x="0px" y="0px" viewBox="6.1 5.2 50 50"
	 enable-background="new 6.1 5.2 50 50" xml:space="preserve">
<g>
	<path fill="#FFFFFF" d="M31.1,5.2c-13.7,0-25,11.3-25,25c0,13.7,11.3,25,25,25s25-11.3,25-25C56.1,16.5,44.8,5.2,31.1,5.2z
		 M31.1,53.6c-12.9,0-23.4-10.5-23.4-23.4c0-12.9,10.5-23.4,23.4-23.4c12.9,0,23.4,10.5,23.4,23.4C54.5,43.1,44,53.6,31.1,53.6z"/>
	<polygon fill="#FFFFFF" points="38.4,20.6 31.1,27.9 23.8,20.6 21.5,22.9 28.8,30.2 21.5,37.5 23.8,39.8 31.1,32.5 38.4,39.8 
		40.7,37.5 33.4,30.2 40.7,22.9 	"/>
</g>
</svg>
