<?xml version="1.0" encoding="utf-8"?>
<!-- Generator: Adobe Illustrator 18.1.1, SVG Export Plug-In . SVG Version: 6.00 Build 0)  -->
<svg version="1.1" id="Layer_1" xmlns:ev="http://www.w3.org/2001/xml-events"
	 xmlns="http://www.w3.org/2000/svg" xmlns:xlink="http://www.w3.org/1999/xlink" x="0px" y="0px" viewBox="-290.5 381.5 31 31"
	 enable-background="new -290.5 381.5 31 31" xml:space="preserve">
<filter  id="Filter_1">
	<feFlood  result="floodOut" flood-opacity="1" flood-color="rgb( 0, 0, 0 )"></feFlood>
	<feComposite  operator="atop" in="floodOut" result="compOut" in2="SourceGraphic"></feComposite>
	<feBlend  in="compOut" in2="SourceGraphic" mode="normal"></feBlend>
</filter>
<filter  id="Filter_0">
	<feFlood  result="floodOut" flood-opacity="1" flood-color="rgb( 0, 0, 0 )"></feFlood>
	<feComposite  operator="atop" in="floodOut" result="compOut" in2="SourceGraphic"></feComposite>
	<feBlend  in="compOut" in2="SourceGraphic" mode="normal"></feBlend>
</filter>
<g opacity="0.502" enable-background="new    ">
	<path fill="#FFFFFF" d="M-275,412.5c-8.5,0-15.5-7-15.5-15.5s7-15.5,15.5-15.5s15.5,7,15.5,15.5S-266.5,412.5-275,412.5z
		 M-275,382.5c-8,0-14.5,6.5-14.5,14.5s6.5,14.5,14.5,14.5s14.5-6.5,14.5-14.5S-267,382.5-275,382.5z"/>
</g>
<g filter="url(#Filter_0)">
	<path fill="none" stroke="#FFFFFF" stroke-width="2" d="M-280.2,391.8l10.4,10.4"/>
</g>
<g>
	
		<rect x="-282.4" y="396" transform="matrix(0.7071 0.7071 -0.7071 0.7071 200.1758 310.733)" fill="#FFFFFF" width="14.8" height="2"/>
</g>
<g filter="url(#Filter_1)">
	<path fill="none" stroke="#FFFFFF" stroke-width="2" d="M-269.8,391.8l-10.4,10.4"/>
</g>
<g>
	
		<rect x="-276" y="389.6" transform="matrix(0.7071 0.7071 -0.7071 0.7071 200.1758 310.733)" fill="#FFFFFF" width="2" height="14.8"/>
</g>
</svg>
