<?xml version="1.0" encoding="utf-8"?>
<!-- Generator: Adobe Illustrator 18.1.1, SVG Export Plug-In . SVG Version: 6.00 Build 0)  -->
<svg version="1.1" id="Layer_1" xmlns:ev="http://www.w3.org/2001/xml-events"
	 xmlns="http://www.w3.org/2000/svg" xmlns:xlink="http://www.w3.org/1999/xlink" x="0px" y="0px" viewBox="-292 382 30 30"
	 enable-background="new -292 382 30 30" xml:space="preserve">
<g>
	<path fill="#FFFFFF" d="M-277,412c-8.3,0-15-6.7-15-15c0-8.3,6.7-15,15-15c8.3,0,15,6.7,15,15C-262,405.3-268.7,412-277,412z
		 M-277,384c-7.2,0-13,5.8-13,13c0,7.2,5.8,13,13,13c7.2,0,13-5.8,13-13C-264,389.8-269.8,384-277,384z"/>
</g>
<g>
	<path fill="#FFFFFF" d="M-273.5,392.8c-0.3,0-0.6,0.1-0.6,0.8v1.5h2.1l-0.3,3h-1.9v0c0,3.6,0,7,0,7h-2.9c0,0,0-3.3,0-7v0h-2v-3h2
		v-1.7c0-1.3,0.5-3.4,2.9-3.4l2.1,0v2.8C-272,392.8-273.3,392.8-273.5,392.8z"/>
</g>
</svg>
