<?xml version="1.0" encoding="utf-8"?>
<!-- Generator: Adobe Illustrator 18.1.1, SVG Export Plug-In . SVG Version: 6.00 Build 0)  -->
<svg version="1.1" id="Layer_1" xmlns:ev="http://www.w3.org/2001/xml-events"
	 xmlns="http://www.w3.org/2000/svg" xmlns:xlink="http://www.w3.org/1999/xlink" x="0px" y="0px" viewBox="-285 375.9 40 41.8"
	 enable-background="new -285 375.9 40 41.8" xml:space="preserve">
<g>
	<path d="M-260.4,418v-2c1-0.2,4-4.6,6.4-9.6V395h-1.7c-1.7,0-1.9,4-2.1,6.3l0,0.6l-0.2,0.2c-2.3,3.2-3.1,5.2-3.1,5.3l-0.3,0.6
		l-13.6,0c0.3,5.7,3,8.1,3.1,8.2l-1.3,1.5c-0.2-0.1-3.9-3.4-3.9-10.8v-1h14.4c0.4-0.8,1.3-2.5,2.9-4.8l0,0c0.2-3.3,0.5-8.2,4.1-8.2
		h3.7v13.9l-0.1,0.2C-254.1,411.1-257.8,418-260.4,418z"/>
</g>
<g>
	<polygon points="-245,408 -253.4,408 -253.4,406 -247,406 -247,388 -283,388 -283,406 -261.8,406 -261.8,408 -285,408 -285,386 
		-245,386 	"/>
</g>
<g>
	<path d="M-255,388h-22v-4.3c0-2.1,1.7-3.7,3.7-3.7c0.5,0,0.9,0.1,1.3,0.3c0.2-1.8,1.8-3.3,3.7-3.3c0.7,0,1.4,0.2,1.9,0.6
		c0.7-1,1.8-1.6,3.1-1.6c1.5,0,2.8,1.1,3.2,2.5c0.5-0.3,1.2-0.5,1.8-0.5c1.8,0,3.3,1.5,3.3,3.3V388z M-275,386h18v-4.7
		c0-0.7-0.6-1.3-1.3-1.3c-1,0-1.7,0.8-1.7,1.7h-2v-2.5c0-0.7-0.6-1.3-1.3-1.3c-1,0-1.7,0.8-1.7,1.7v0.5h-2c0-0.7-0.6-1.3-1.3-1.3
		c-1,0-1.7,0.8-1.7,1.7v2.5h-2c0-0.7-0.6-1.3-1.3-1.3c-1,0-1.7,0.8-1.7,1.7V386z"/>
</g>
<g>
	<polygon points="-278,405.5 -282.5,405.5 -282.5,402 -281.5,402 -281.5,404.5 -278,404.5 	"/>
</g>
<g>
	<polygon points="-247.5,392 -248.5,392 -248.5,389.5 -252,389.5 -252,388.5 -247.5,388.5 	"/>
</g>
<g>
	<path d="M-266,403.5c-3,0-5.5-2.9-5.5-6.5s2.5-6.5,5.5-6.5c3,0,5.5,2.9,5.5,6.5S-263,403.5-266,403.5z M-266,391.5
		c-2.5,0-4.5,2.5-4.5,5.5c0,3,2,5.5,4.5,5.5s4.5-2.5,4.5-5.5C-261.5,394-263.5,391.5-266,391.5z"/>
</g>
</svg>
