<?xml version="1.0" encoding="utf-8"?>
<!-- Generator: Adobe Illustrator 18.1.1, SVG Export Plug-In . SVG Version: 6.00 Build 0)  -->
<svg version="1.1" id="Layer_1" xmlns:ev="http://www.w3.org/2001/xml-events"
	 xmlns="http://www.w3.org/2000/svg" xmlns:xlink="http://www.w3.org/1999/xlink" x="0px" y="0px" viewBox="-291 389 31.8 15.8"
	 enable-background="new -291 389 31.8 15.8" xml:space="preserve">
<g>
	<path fill="#FFFFFF" d="M-283,404.8c-4.4,0-8-3.5-8-7.9c0-4.4,3.6-7.9,8-7.9s8,3.5,8,7.9C-275,401.3-278.6,404.8-283,404.8z
		 M-283,391c-3.3,0-6,2.6-6,5.9s2.7,5.9,6,5.9s6-2.6,6-5.9S-279.7,391-283,391z"/>
</g>
<g>
	<path fill="#FFFFFF" d="M-267.2,404.8c-4.4,0-8-3.5-8-7.9c0-4.4,3.6-7.9,8-7.9s8,3.5,8,7.9C-259.2,401.3-262.8,404.8-267.2,404.8z
		 M-267.2,391c-3.3,0-6,2.6-6,5.9s2.7,5.9,6,5.9s6-2.6,6-5.9S-263.9,391-267.2,391z"/>
</g>
<g>
	<path fill="#FFFFFF" d="M-269,398h-12c-0.6,0-1-0.4-1-1s0.4-1,1-1h12c0.6,0,1,0.4,1,1S-268.4,398-269,398z"/>
</g>
</svg>
