<?xml version="1.0" encoding="utf-8"?>
<!-- Generator: Adobe Illustrator 18.1.0, SVG Export Plug-In . SVG Version: 6.00 Build 0)  -->
<svg version="1.1" id="Layer_1" xmlns:ev="http://www.w3.org/2001/xml-events"
	 xmlns="http://www.w3.org/2000/svg" xmlns:xlink="http://www.w3.org/1999/xlink" x="0px" y="0px" viewBox="5.2 1.5 50.4 49.8"
	 enable-background="new 5.2 1.5 50.4 49.8" xml:space="preserve">
<path fill="#FFFFFF" d="M55.6,26.5c0-3.2-0.6-6.3-1.8-9.2l0,0l-0.4-0.7c-3.6-8.3-11.6-14.3-21-15c-0.1,0-0.2,0-0.3,0
	c-0.5,0-1.1-0.1-1.7-0.1c-0.5,0-1.1,0-1.6,0.1c-0.1,0-0.3,0-0.4,0c-0.5,0-0.9,0.1-1.3,0.1c-0.1,0-0.2,0-0.3,0
	c-0.5,0.1-1,0.2-1.6,0.3c-0.1,0-0.3,0.1-0.4,0.1c-0.4,0.1-0.8,0.2-1.2,0.3c-0.2,0-0.3,0.1-0.5,0.1c-0.5,0.1-0.9,0.3-1.4,0.5
	c-0.2,0.1-0.4,0.2-0.6,0.3c-0.2,0.1-0.5,0.2-0.7,0.3c-0.3,0.1-0.5,0.2-0.8,0.4c-0.1,0.1-0.2,0.1-0.3,0.2c-3.1,1.5-5.9,3.7-8.1,6.4
	c-0.1,0.1-0.2,0.2-0.2,0.3c-0.2,0.2-0.4,0.5-0.6,0.7c-0.3,0.4-0.6,0.8-0.9,1.2c0,0.1-0.1,0.1-0.1,0.2c-0.8,1.2-1.4,2.4-2,3.6L7,17.3
	l0,0c-1.1,2.8-1.8,5.9-1.8,9.2c0,4.6,1.2,8.8,3.4,12.5l-0.1,0.1l0.8,1.1c3.7,5.5,9.2,9.3,15.5,10.6c0.2,0,0.3,0.1,0.5,0.1
	S25.8,51,26,51c0.3,0,0.5,0.1,0.8,0.1c0.2,0,0.4,0.1,0.6,0.1c0.3,0,0.6,0.1,0.9,0.1c0.2,0,0.3,0,0.5,0c0.5,0,1,0,1.4,0s1,0,1.4,0
	c0.2,0,0.3,0,0.5,0c0.3,0,0.6-0.1,0.9-0.1c0.2,0,0.4,0,0.6-0.1c0.3,0,0.5-0.1,0.8-0.1c0.2,0,0.5-0.1,0.7-0.1s0.3-0.1,0.5-0.1
	c6.3-1.4,11.8-5.2,15.5-10.6l0.8-1.1L51.8,39C54.4,35.3,55.6,31.1,55.6,26.5z M52.5,26.5c0,3.7-0.9,7.2-2.6,10.3l-10-9.8l11.3-7.8
	C52,21.4,52.5,23.9,52.5,26.5z M35,47.9L35,47.9c-0.4,0.1-0.7,0.1-1,0.2c-0.1,0-0.2,0-0.4,0.1c-0.2,0-0.5,0.1-0.7,0.1
	s-0.4,0-0.6,0.1c-0.2,0-0.4,0-0.5,0c-0.4,0-0.8,0-1.2,0c-0.4,0-0.8,0-1.2,0c-0.1,0-0.2,0-0.3,0c-0.3,0-0.6,0-0.9-0.1
	c-0.1,0-0.2,0-0.3,0c-0.3,0-0.6-0.1-1-0.1c-0.1,0-0.1,0-0.2,0c-0.4-0.1-0.7-0.1-1.1-0.2h-0.1c-4.9-1.2-9.4-4.1-12.4-8.3L23.9,29
	l6.7,4.6l6.7-4.6l10.8,10.7c-1.2,1.7-2.6,3.1-4.2,4.4C41.3,45.8,38.3,47.2,35,47.9z M20.6,7.1L20.6,7.1c1.3-0.7,2.6-1.2,4-1.6
	c0.1,0,0.1,0,0.2-0.1c0.9-0.2,1.8-0.4,2.7-0.6c0.1,0,0.2,0,0.3,0c0.4,0,0.7-0.1,1.1-0.1c0.1,0,0.2,0,0.4,0c0.5,0,0.9,0,1.4,0
	s0.9,0,1.4,0c0.1,0,0.2,0,0.2,0c7.3,0.6,14.1,4.9,17.6,11.5L30.6,29.5L11.4,16.2C13.5,12.2,16.7,9.1,20.6,7.1z M8.7,26.5
	c0-2.6,0.5-5.1,1.3-7.4l11.3,7.8l-10,9.8C9.7,33.7,8.7,30.2,8.7,26.5z"/>
</svg>
