<?xml version="1.0" encoding="utf-8"?>
<!-- Generator: Adobe Illustrator 18.1.1, SVG Export Plug-In . SVG Version: 6.00 Build 0)  -->
<svg version="1.1" id="Layer_1" xmlns:ev="http://www.w3.org/2001/xml-events"
	 xmlns="http://www.w3.org/2000/svg" xmlns:xlink="http://www.w3.org/1999/xlink" x="0px" y="0px" viewBox="-291 381 32 32"
	 enable-background="new -291 381 32 32" xml:space="preserve">
<g>
	<path fill="#FFFFFF" d="M-275,413c-8.8,0-16-7.2-16-16s7.2-16,16-16s16,7.2,16,16S-266.2,413-275,413z M-275,383
		c-7.7,0-14,6.3-14,14s6.3,14,14,14s14-6.3,14-14S-267.3,383-275,383z"/>
</g>
<g>
	<path fill="#FFFFFF" d="M-275,401.4l-14.9-10.3l0.4-0.8c2.6-5.7,8.3-9.3,14.5-9.3s11.9,3.7,14.5,9.3l0.4,0.8L-275,401.4z
		 M-287.3,390.4l12.3,8.5l12.3-8.5c-2.4-4.5-7.2-7.4-12.3-7.4C-280.2,383-284.9,385.9-287.3,390.4z"/>
</g>
<g>
	<path fill="#FFFFFF" d="M-275,413c-5.4,0-10.4-2.7-13.4-7.2l-0.5-0.7l9.4-9.2l4.5,3.1l4.5-3.1l9.4,9.2l-0.5,0.7
		C-264.6,410.3-269.6,413-275,413z M-286.2,405.3c2.6,3.6,6.8,5.7,11.2,5.7c4.5,0,8.6-2.1,11.2-5.7l-7-6.9l-4.2,2.9l-4.2-2.9
		L-286.2,405.3z"/>
</g>
</svg>
