<?xml version="1.0" encoding="utf-8"?>
<!-- Generator: Adobe Illustrator 18.1.1, SVG Export Plug-In . SVG Version: 6.00 Build 0)  -->
<svg version="1.1" id="Layer_1" xmlns:ev="http://www.w3.org/2001/xml-events"
	 xmlns="http://www.w3.org/2000/svg" xmlns:xlink="http://www.w3.org/1999/xlink" x="0px" y="0px" viewBox="-283 377 44 39"
	 enable-background="new -283 377 44 39" xml:space="preserve">
<g>
	<path fill="#000" d="M-239,416h-2c0-7.2-13-11-20-11c-7,0-20,3.8-20,11h-2c0-9.1,14.6-13,22-13S-239,406.9-239,416z"/>
</g>
<g>
	<path d="M-261,403c-5.5,0-10-5.7-10-12.7c0-0.6,0-1.2,0.1-1.9c-0.1-0.5-0.1-0.9-0.1-1.3c0-5.4,4.2-9.8,9.7-10c0.3,0,0.4,0,0.6,0
		c5.5,0.1,9.8,4.5,9.8,10c0,0.4,0,0.9-0.1,1.4c0.1,0.7,0.1,1.3,0.1,1.9C-251,397.3-255.5,403-261,403z M-261,379l-0.3,0
		c-4.3,0.1-7.7,3.7-7.7,8c0,0.4,0,0.7,0.1,1.2l0,0.1l0,0.1c-0.1,0.7-0.1,1.3-0.1,1.8c0,5.9,3.6,10.7,8,10.7s8-4.8,8-10.7
		c0-0.5,0-1.1-0.1-1.8l0-0.1l0-0.1c0.1-0.5,0.1-0.9,0.1-1.2c0-4.4-3.4-7.9-7.8-8L-261,379z"/>
</g>
</svg>
