<?xml version="1.0" encoding="utf-8"?>
<!-- Generator: Adobe Illustrator 18.1.1, SVG Export Plug-In . SVG Version: 6.00 Build 0)  -->
<svg version="1.1" id="Layer_1" xmlns:ev="http://www.w3.org/2001/xml-events"
	 xmlns="http://www.w3.org/2000/svg" xmlns:xlink="http://www.w3.org/1999/xlink" x="0px" y="0px" viewBox="-282 367 47 59"
	 enable-background="new -282 367 47 59" xml:space="preserve">
<g>
	<path d="M-277,415c-1.9-0.1-3.3-0.5-4.4-1.4l1.3-1.5c0.7,0.6,1.7,0.9,3.1,0.9L-277,415z M-274.8,414.9l-0.2-2
		c1.1-0.1,2.4-0.3,3.8-0.6l0.4,2C-272.3,414.6-273.6,414.8-274.8,414.9z M-268.8,413.7l-0.5-1.9c1.1-0.3,2.4-0.7,3.8-1.1l0.6,1.9
		C-266.3,413.1-267.6,413.4-268.8,413.7z M-263,412l-0.6-1.9c1.3-0.4,2.5-0.8,3.8-1.2l0.6,1.9C-260.4,411.2-261.7,411.6-263,412z
		 M-282.7,411.5c-0.2-0.6-0.3-1.3-0.3-2.1v-2.2h2v2.2c0,0.6,0.1,1.1,0.2,1.5L-282.7,411.5z M-257.3,410.1l-0.6-1.9
		c1.3-0.4,2.6-0.9,3.8-1.3l0.6,1.9C-254.7,409.3-256,409.7-257.3,410.1z M-234,409.4h-2c0-0.6-0.1-1.1-0.2-1.5l0.2-0.1v-0.7h2V409.4
		z M-251.6,408.3l-0.6-1.9c1.4-0.5,2.7-0.8,3.9-1.1l0.5,1.9C-248.9,407.5-250.1,407.8-251.6,408.3z M-237,406.8
		c-0.7-0.5-1.7-0.8-3.2-0.8l0-2c1.8,0,3.1,0.4,4.1,1.1v-3.8h2v4h-1.8c0,0,0,0,0,0L-237,406.8z M-245.9,406.7l-0.5-1.9
		c1.5-0.4,2.9-0.6,4.1-0.7l0.2,2C-243.2,406.1-244.4,406.3-245.9,406.7z M-281,405.2h-2v-4h2V405.2z M-281,399.2h-2v-4h2V399.2z
		 M-234,399.2h-2v-4h2V399.2z M-281,393.2h-2v-4h2V393.2z M-234,393.2h-2v-4h2V393.2z M-276.3,389.2c-0.4,0-0.7,0-1,0l0.1-2
		c0.3,0,0.5,0,0.8,0c0.9,0,1.8-0.1,2.9-0.3l0.3,2C-274.2,389.2-275.3,389.2-276.3,389.2z M-279.5,388.8c-1-0.3-1.8-0.9-2.4-1.6h-1.2
		v-4h2v1.7l0.2-0.1c0.3,1,0.9,1.7,2,2.1L-279.5,388.8z M-271,388.6l-0.4-2c1.1-0.2,2.4-0.6,3.8-1l0.5,1.9
		C-268.5,388-269.8,388.3-271,388.6z M-234,387.2h-2v-3.9c0-1.7-0.6-2.3-1.1-2.6l1.1-1.7c1.3,0.9,2,2.3,2,4.3V387.2z M-265.1,387
		l-0.6-1.9c1.2-0.4,2.5-0.8,3.8-1.2l0.6,1.9C-262.6,386.2-263.9,386.6-265.1,387z M-259.4,385.1l-0.6-1.9l3.8-1.3l0.6,1.9
		L-259.4,385.1z M-253.7,383.2l-0.6-1.9c1.3-0.4,2.6-0.9,3.8-1.2l0.6,1.9C-251.1,382.4-252.4,382.8-253.7,383.2z M-248,381.4
		l-0.5-1.9c1.5-0.4,2.8-0.7,4-1l0.4,2C-245.3,380.7-246.6,381-248,381.4z M-242.3,380.2l-0.3-2c1.7-0.2,3.1-0.2,4.3,0l-0.3,2
		C-239.6,379.9-240.8,380-242.3,380.2z"/>
</g>
<g>
	<path d="M-258.9,403.5c-0.7-0.1-1.4-0.3-2.1-0.8l0.5-0.8c0.5,0.3,1.1,0.5,1.7,0.6L-258.9,403.5z M-257.7,403.5l-0.1-1
		c0.6-0.1,1.1-0.3,1.7-0.6l0.5,0.9C-256.3,403.1-257,403.4-257.7,403.5z M-254.8,402.1l-0.7-0.7c0.4-0.4,0.8-0.9,1.2-1.4l0.9,0.5
		C-253.8,401.1-254.3,401.6-254.8,402.1z M-261.8,402c-0.5-0.5-0.9-1.1-1.3-1.7l0.9-0.5c0.3,0.6,0.7,1.1,1.1,1.5L-261.8,402z
		 M-253,399.5l-0.9-0.4c0.3-0.6,0.4-1.2,0.6-1.8l1,0.2C-252.5,398.2-252.7,398.8-253,399.5z M-263.5,399.4c-0.2-0.6-0.4-1.3-0.5-2
		l1-0.1c0.1,0.6,0.2,1.3,0.5,1.8L-263.5,399.4z M-252.2,396.4l-1-0.1c0-0.3,0-0.6,0-0.8c0-0.4,0-0.7-0.1-1.1l1-0.1
		c0,0.4,0.1,0.8,0.1,1.2C-252.1,395.8-252.1,396.1-252.2,396.4z M-264.1,396.3l0-0.3c0-0.6,0.1-1.2,0.2-1.8l1,0.2
		c-0.1,0.5-0.2,1.1-0.2,1.6l0,0.2L-264.1,396.3z M-253.3,393.5c-0.1-0.6-0.4-1.2-0.6-1.8l0.9-0.5c0.3,0.6,0.6,1.3,0.7,2
		L-253.3,393.5z M-262.8,393.4l-1-0.3c0.2-0.7,0.5-1.3,0.8-1.9l0.9,0.5C-262.3,392.2-262.6,392.8-262.8,393.4z M-254.5,391
		c-0.4-0.5-0.8-0.9-1.3-1.3l0.6-0.8c0.6,0.4,1.1,0.9,1.5,1.5L-254.5,391z M-261.5,390.9l-0.8-0.6c0.5-0.6,1-1.1,1.6-1.5l0.5,0.8
		C-260.6,390-261.1,390.4-261.5,390.9z M-259.4,389.3l-0.4-0.9c0.4-0.2,0.9-0.3,1.4-0.3c0.8-0.1,1.5,0,2.2,0.3l-0.4,0.9
		c-0.6-0.2-1.1-0.3-1.7-0.3C-258.6,389-259,389.1-259.4,389.3z"/>
</g>
</svg>
