<?xml version="1.0" encoding="utf-8"?>
<!-- Generator: Adobe Illustrator 18.1.1, SVG Export Plug-In . SVG Version: 6.00 Build 0)  -->
<svg version="1.1" id="Layer_1" xmlns:ev="http://www.w3.org/2001/xml-events"
	 xmlns="http://www.w3.org/2000/svg" xmlns:xlink="http://www.w3.org/1999/xlink" x="0px" y="0px" viewBox="-276.5 377.5 60.5 39"
	 enable-background="new -276.5 377.5 60.5 39" xml:space="preserve">
<g>
	<path d="M-257,416.5c-10.8,0-19.5-8.7-19.5-19.5c0-10.8,8.7-19.5,19.5-19.5c9.1,0,17.1,6.5,19.1,15.4l-1,0.2
		c-1.8-8.5-9.4-14.6-18.1-14.6c-10.2,0-18.5,8.3-18.5,18.5s8.3,18.5,18.5,18.5c8.7,0,16.3-6.1,18.1-14.6l1,0.2
		C-239.9,410-247.9,416.5-257,416.5z"/>
</g>
<g>
	<path d="M-257,411c-7.7,0-14-6.3-14-14s6.3-14,14-14c6.5,0,12.1,4.4,13.6,10.8l-1.9,0.5c-1.3-5.4-6.1-9.2-11.7-9.2
		c-6.6,0-12,5.4-12,12c0,6.6,5.4,12,12,12c5.6,0,10.4-3.8,11.7-9.2l1.9,0.5C-244.9,406.6-250.5,411-257,411z"/>
</g>
<g>
	<path d="M-257,405c-4.4,0-8-3.6-8-8s3.6-8,8-8s8,3.6,8,8S-252.6,405-257,405z M-257,391c-3.3,0-6,2.7-6,6s2.7,6,6,6s6-2.7,6-6
		S-253.7,391-257,391z"/>
</g>
<g>
	<path d="M-224,405c-4.4,0-8-3.6-8-8s3.6-8,8-8s8,3.6,8,8S-219.6,405-224,405z M-224,391c-3.3,0-6,2.7-6,6s2.7,6,6,6s6-2.7,6-6
		S-220.7,391-224,391z"/>
</g>
<g>
	<rect x="-252" y="395" width="22" height="2"/>
</g>
</svg>
