<?xml version="1.0" encoding="utf-8"?>
<!-- Generator: Adobe Illustrator 18.1.1, SVG Export Plug-In . SVG Version: 6.00 Build 0)  -->
<svg version="1.1" id="Layer_1" xmlns:ev="http://www.w3.org/2001/xml-events"
	 xmlns="http://www.w3.org/2000/svg" xmlns:xlink="http://www.w3.org/1999/xlink" x="0px" y="0px" viewBox="-291 381 32 32"
	 enable-background="new -291 381 32 32" xml:space="preserve">
<filter  id="Filter_0">
	<feFlood  result="floodOut" flood-opacity="1" flood-color="rgb( 255, 255, 255 )"></feFlood>
	<feComposite  operator="atop" in="floodOut" result="compOut" in2="SourceGraphic"></feComposite>
	<feBlend  in="compOut" in2="SourceGraphic" mode="normal"></feBlend>
</filter>
<g>
	<path fill="#FFFFFF" d="M-275,413c-8.8,0-16-7.2-16-16s7.2-16,16-16s16,7.2,16,16S-266.2,413-275,413z M-275,383
		c-7.7,0-14,6.3-14,14s6.3,14,14,14s14-6.3,14-14S-267.3,383-275,383z"/>
</g>
<g filter="url(#Filter_0)">
	<path fill="#FFFFFF" d="M-267,392.4c-0.6,0.2-1.1,0.4-1.8,0.5c0.6-0.4,1.1-1,1.4-1.7c-0.6,0.3-1.3,0.6-2,0.7c-0.6-0.6-1.4-1-2.2-1
		c-1.7,0-3.1,1.4-3.1,3c0,0.2,0,0.5,0.1,0.7c-2.6-0.1-4.8-1.3-6.3-3.2c-0.3,0.4-0.4,1-0.4,1.5c0,1.1,0.5,2,1.4,2.5
		c-0.5,0-1-0.2-1.4-0.4c0,0,0,0,0,0c0,1.5,1.1,2.7,2.5,3c-0.3,0.1-0.5,0.1-0.8,0.1c-0.2,0-0.4,0-0.6-0.1c0.4,1.2,1.5,2.1,2.9,2.1
		c-1.1,0.8-2.4,1.3-3.8,1.3c-0.2,0-0.5,0-0.7,0c1.4,0.9,3,1.4,4.7,1.4c5.7,0,8.7-4.6,8.7-8.6c0-0.1,0-0.3,0-0.4
		C-267.9,393.6-267.4,393-267,392.4z"/>
</g>
</svg>
